<svg width="176" height="39" viewBox="0 0 176 39" fill="none" xmlns="http://www.w3.org/2000/svg">
<g clip-path="url(#clip0_13_1376)">
<path d="M48.8713 38.6087C48.4838 38.7985 47.9737 38.8895 47.3489 38.8895C46.5304 38.8895 45.8898 38.6483 45.4192 38.1698C44.9526 37.6913 44.7153 37.0507 44.7153 36.248C44.7153 35.3978 44.9803 34.7058 45.5062 34.1759C46.0321 33.646 46.7162 33.3811 47.5545 33.3811C48.0726 33.3811 48.5115 33.4483 48.8713 33.5788V34.7335C48.5154 34.52 48.1081 34.4132 47.6534 34.4132C47.1512 34.4132 46.7479 34.5714 46.4434 34.8838C46.1349 35.1961 45.9807 35.6232 45.9807 36.161C45.9807 36.6988 46.127 37.0863 46.4157 37.3908C46.7044 37.6953 47.0958 37.8495 47.5862 37.8495C48.0765 37.8495 48.4838 37.7348 48.8713 37.5094V38.6048V38.6087Z" fill="white"/>
<path d="M58.1367 38.7984H56.8278L56.4482 37.6121H54.5541L54.1784 38.7984H52.8774L54.8151 33.4719H56.2386L58.1328 38.7984H58.1367ZM56.1754 36.6947L55.602 34.9034C55.5585 34.7689 55.5308 34.6108 55.511 34.4249H55.4833C55.4715 34.5831 55.4399 34.7373 55.3924 34.8915L54.8111 36.6947H56.1754Z" fill="white"/>
<path d="M63.653 36.9636V38.7984H62.4548V33.4719H64.3331C65.6737 33.4719 66.3459 34.0374 66.3459 35.1683C66.3459 35.7022 66.1521 36.1371 65.7686 36.4654C65.385 36.7975 64.867 36.9596 64.2264 36.9596H63.653V36.9636ZM63.653 34.3933V36.0541H64.1236C64.7602 36.0541 65.0805 35.7733 65.0805 35.2158C65.0805 34.6582 64.7602 34.3933 64.1236 34.3933H63.653Z" fill="white"/>
<path d="M71.9804 33.4719H70.7783V38.7984H71.9804V33.4719Z" fill="white"/>
<path d="M80.5815 34.4486H79.0631V38.7984H77.857V34.4486H76.3464V33.4719H80.5815V34.4486Z" fill="white"/>
<path d="M89.633 38.7984H88.3242L87.9446 37.6121H86.0504L85.6748 38.7984H84.3738L86.3114 33.4719H87.735L89.6291 38.7984H89.633ZM87.6717 36.6947L87.0983 34.9034C87.0548 34.7689 87.0271 34.6108 87.0074 34.4249H86.9797C86.9678 34.5831 86.9362 34.7373 86.8887 34.8915L86.3075 36.6947H87.6717Z" fill="white"/>
<path d="M97.1223 38.7984H93.9509V33.4719H95.153V37.8256H97.1223V38.7984Z" fill="white"/>
<path d="M21.3257 0.469257C20.6891 0.350627 20.0841 0.690701 19.8547 1.29176C19.6253 1.89677 19.8547 2.54924 20.4083 2.88536C24.1254 5.10769 25.6873 7.87968 26.1421 8.83267C26.1421 8.83267 26.1421 8.83663 26.1421 8.84058C26.2133 8.98689 26.2528 9.08575 26.2726 9.13716C26.4505 9.62354 26.3082 9.82916 26.2489 9.93593C26.1777 10.0585 25.9048 10.446 25.371 10.2602C24.9953 10.1297 24.6039 10.019 24.2124 9.92802C18.2413 8.56378 12.2387 12.3006 10.8349 18.2638C9.77906 22.744 11.5941 27.244 15.0818 29.8223C14.0537 29.5652 13.0532 29.1777 12.1121 28.6518C12.0844 28.636 12.0568 28.6202 12.0291 28.6043C11.9302 28.549 11.8314 28.4857 11.7325 28.4264C9.25709 26.8961 7.41042 24.5314 6.51279 21.8187C5.14459 17.5599 6.18457 12.6842 9.59321 9.38233C10.8902 8.12485 12.4522 7.17581 14.1486 6.60243C14.2554 7.36166 14.3107 8.1288 14.3107 8.9078C14.3107 9.37441 14.6903 9.75403 15.157 9.75403C15.6236 9.75403 16.0032 9.37441 16.0032 8.9078C16.0032 7.70173 15.8806 6.51543 15.6473 5.35286C15.6473 5.33704 15.6473 5.32518 15.6394 5.30936C15.6394 5.30936 15.6394 5.30145 15.6394 5.2975C15.3665 3.96489 14.9513 2.66787 14.374 1.4183C14.2554 1.15731 14.03 0.947732 13.7571 0.852828C13.512 0.765833 13.251 0.765833 13.0098 0.852828C5.34626 3.05144 0 10.1534 0 18.1372C0 27.9519 7.9838 36.0187 17.7984 36.1136C17.8578 36.1136 17.9171 36.1136 17.9764 36.1136C22.7097 36.1136 27.186 34.263 30.5947 30.8899C34.0468 27.4774 35.9528 22.9536 35.9567 18.157C35.9686 9.50095 29.8117 2.06285 21.3178 0.465304M29.4084 29.6878C26.3161 32.7445 22.2668 34.4212 17.9804 34.4212C17.925 34.4212 17.8736 34.4212 17.8182 34.4212C8.92888 34.3342 1.69641 27.0305 1.69641 18.1372C1.69641 11.055 6.34275 4.73994 13.0532 2.61251C13.3696 3.36778 13.6266 4.13888 13.8243 4.92579C11.8076 5.57035 9.9491 6.68152 8.41482 8.16834C6.48115 10.0427 5.21972 12.3599 4.63052 14.8116C4.60679 14.863 4.58702 14.9184 4.57516 14.9777C4.01364 17.378 4.13228 19.7743 4.80056 21.9848C5.39371 24.0252 6.46533 25.9549 8.01939 27.596C9.79093 29.4624 11.9658 30.7199 14.2791 31.3684C14.291 31.3684 14.2989 31.3724 14.3107 31.3763C14.4649 31.4198 14.6231 31.4633 14.7813 31.4989C14.8485 31.5147 14.9118 31.5345 14.9751 31.5503C14.9751 31.5503 15.323 31.6334 15.8846 31.7204C16.4144 31.8034 16.9522 31.8548 17.49 31.8746C18.1978 31.9062 18.9966 31.8943 19.8033 31.7797C22.6267 31.4356 25.3829 30.2612 27.534 28.114C29.4835 26.1645 30.563 24.0569 30.7845 23.1711C31.1483 22.0283 31.0652 20.8103 30.5314 19.7308C29.9857 18.6276 29.0446 17.8011 27.882 17.4017C26.7155 17.0023 25.4659 17.0854 24.3626 17.6311C22.081 18.7541 21.1399 21.5221 22.2629 23.8038C22.4685 24.2229 22.9786 24.3969 23.3978 24.1913C23.8169 23.9857 23.9909 23.4756 23.7853 23.0564C23.0775 21.6131 23.6706 19.8613 25.114 19.1535C25.8139 18.8095 26.6047 18.758 27.3403 19.0111C28.0758 19.2602 28.6729 19.7862 29.0169 20.4821C29.3609 21.1821 29.4123 21.9729 29.1592 22.7084C29.0208 23.1157 28.8943 23.3332 28.6412 23.5863C24.8372 27.0463 18.9254 26.8447 15.3744 23.092C15.0541 22.7519 14.5164 22.7361 14.1763 23.0604C13.8362 23.3807 13.8204 23.9185 14.1446 24.2585C17.3318 27.6237 22.1364 28.5687 26.2251 27.0266C24.5169 28.5885 22.4764 29.5692 20.345 29.9765C18.3995 30.2691 16.8138 29.2884 16.3709 28.9958C13.1442 26.8644 11.5308 22.7677 12.4996 18.6631C13.6939 13.6055 18.7831 10.4302 23.8486 11.5928C24.1807 11.6679 24.5129 11.7628 24.8332 11.8736C25.9681 12.265 27.1307 11.8301 27.7317 10.794C28.1272 10.1099 28.1667 9.34674 27.8978 8.6745C27.8504 8.53214 26.7431 5.45567 23.1289 2.68368C29.7089 4.85857 34.288 11.059 34.2801 18.1649C34.2761 22.5068 32.5481 26.5995 29.4202 29.6918" fill="#24ADF4"/>
<path d="M50.7815 26.9039C46.5622 26.9039 43.0942 24.4958 43.0942 19.7901V12.8463C43.0942 8.14064 46.4515 5.76013 50.5837 5.76013C52.9919 5.76013 55.4594 6.47587 57.3812 7.79661C57.5829 7.91129 57.5829 8.11296 57.4682 8.25531L56.4915 9.60374C56.3768 9.77378 56.2345 9.77378 56.0605 9.69074C54.455 8.63098 52.5609 8.05365 50.5798 8.05365C47.5389 8.05365 45.5301 9.77378 45.5301 12.9017V19.7862C45.5301 22.914 47.7089 24.5748 50.7815 24.5748C52.7626 24.5748 54.4827 23.9422 55.6295 22.9694V17.635H50.9238C50.7221 17.635 50.6075 17.5203 50.6075 17.3186V15.7132C50.6075 15.5115 50.7221 15.3968 50.9238 15.3968H57.7213C57.923 15.3968 58.0377 15.5115 58.0377 15.7132V23.6298C58.0377 23.8038 58.01 23.9184 57.923 24.0015C56.2305 25.7532 53.763 26.9 50.7815 26.9" fill="white"/>
<path d="M67.5047 11.4386C71.032 11.4386 73.2148 13.305 73.2148 17.0063V25.6109C73.2148 25.7849 73.1278 25.9272 72.9577 25.9826C71.6093 26.469 69.5728 26.9 67.4217 26.9C64.2108 26.9 61.2529 25.6109 61.2529 22.1944C61.2529 19.1535 63.7481 17.6311 67.4217 17.6311C68.5961 17.6311 69.8892 17.8011 70.8659 17.9751V17.0577C70.8659 14.7325 69.9208 13.5581 67.4217 13.5581C65.8162 13.5581 64.3531 14.0168 63.3487 14.6179C63.1747 14.7325 63.0324 14.7048 62.9177 14.5309L62.0873 13.3248C62.0003 13.1508 61.9726 13.0361 62.0873 12.9214C63.4357 12.004 65.2982 11.4307 67.5087 11.4307M67.4217 24.8082C68.7108 24.8082 70.0039 24.5511 70.8659 24.2902V19.9878C69.9485 19.8178 68.6001 19.6438 67.4217 19.6438C64.8118 19.6438 63.6058 20.6205 63.6058 22.1983C63.6058 23.9184 65.2112 24.8082 67.4217 24.8082Z" fill="white"/>
<path d="M81.7915 26.9038C79.0353 26.9038 77.4575 25.069 77.4575 21.6247V6.39264C77.4575 6.19097 77.5722 6.07629 77.8015 6.07629H79.494C79.6957 6.07629 79.8104 6.19097 79.8104 6.39264V21.6564C79.8104 23.8945 80.5854 24.7526 82.0485 24.7526C82.3925 24.7526 82.8789 24.7249 83.3416 24.6656C83.5709 24.6656 83.6856 24.7803 83.6856 24.982V26.4451C83.6856 26.6467 83.5709 26.7891 83.4009 26.8168C82.9145 26.8721 82.3095 26.9038 81.7954 26.9038" fill="white"/>
<path d="M91.6336 11.4386C95.1609 11.4386 97.3437 13.305 97.3437 17.0063V25.6109C97.3437 25.7849 97.2567 25.9272 97.0867 25.9826C95.7382 26.469 93.7018 26.9 91.5506 26.9C88.3357 26.9 85.3818 25.6109 85.3818 22.1944C85.3818 19.1535 87.877 17.6311 91.5506 17.6311C92.725 17.6311 94.0181 17.8011 94.9948 17.9751V17.0577C94.9948 14.7325 94.0497 13.5581 91.5506 13.5581C89.9451 13.5581 88.482 14.0168 87.4776 14.6179C87.3036 14.7325 87.1613 14.7048 87.0466 14.5309L86.2162 13.3248C86.1292 13.1508 86.1015 13.0361 86.2162 12.9214C87.5646 12.004 89.4271 11.4307 91.6376 11.4307M91.5466 24.8082C92.8358 24.8082 94.1288 24.5511 94.9909 24.2902V19.9878C94.0735 19.8178 92.725 19.6438 91.5466 19.6438C88.9368 19.6438 87.7307 20.6205 87.7307 22.1983C87.7307 23.9184 89.3362 24.8082 91.5466 24.8082Z" fill="white"/>
<path d="M107.439 11.4386C111.168 11.4386 113.837 13.3011 113.837 17.6627V20.8183C113.837 24.6896 111.255 26.9 107.554 26.9C106.233 26.9 104.972 26.556 103.995 26.0103V31.7204C103.995 31.922 103.88 32.0367 103.651 32.0367H101.959C101.757 32.0367 101.642 31.922 101.642 31.7204V12.8424C101.642 12.6724 101.698 12.526 101.872 12.4707C103.509 11.838 105.601 11.4386 107.435 11.4386M111.453 20.8222V17.6667C111.453 14.6535 109.931 13.5067 107.38 13.5067C106.146 13.5067 104.885 13.7084 103.995 14.0801V23.7761C104.913 24.4088 106.091 24.8082 107.408 24.8082C109.99 24.8082 111.453 23.6021 111.453 20.8222Z" fill="white"/>
<path d="M123.015 11.4386C126.542 11.4386 128.725 13.305 128.725 17.0063V25.6109C128.725 25.7849 128.638 25.9272 128.468 25.9826C127.12 26.469 125.083 26.9 122.932 26.9C119.721 26.9 116.763 25.6109 116.763 22.1944C116.763 19.1535 119.258 17.6311 122.932 17.6311C124.106 17.6311 125.399 17.8011 126.376 17.9751V17.0577C126.376 14.7325 125.431 13.5581 122.932 13.5581C121.326 13.5581 119.863 14.0168 118.859 14.6179C118.685 14.7325 118.543 14.7048 118.428 14.5309L117.598 13.3248C117.511 13.1508 117.483 13.0361 117.598 12.9214C118.946 12.004 120.808 11.4307 123.019 11.4307M122.928 24.8082C124.217 24.8082 125.51 24.5511 126.372 24.2902V19.9878C125.455 19.8178 124.106 19.6438 122.928 19.6438C120.318 19.6438 119.112 20.6205 119.112 22.1983C119.112 23.9184 120.718 24.8082 122.928 24.8082Z" fill="white"/>
<path d="M138.651 32.3254C136.357 32.3254 134.633 31.6097 133.115 30.3443C132.972 30.2296 132.972 30.0872 133.087 29.8856L133.918 28.6518C134.032 28.4818 134.202 28.4501 134.376 28.5925C135.555 29.5376 136.931 30.198 138.651 30.198C141.233 30.198 142.439 28.9088 142.352 25.9826V25.2946C141.292 25.8126 139.885 26.125 138.679 26.125C135.234 26.125 132.51 24.2585 132.51 20.2726V17.4057C132.51 13.0717 135.349 11.4386 138.936 11.4386C140.944 11.4386 142.953 11.8973 144.444 12.5577C144.614 12.617 144.701 12.7277 144.701 12.9294V26.1843C144.701 29.9409 142.922 32.3214 138.647 32.3214M138.853 24.0055C140.142 24.0055 141.549 23.6891 142.352 23.1434V14.0485C141.522 13.7598 140.027 13.5621 138.967 13.5621C136.5 13.5621 134.894 14.5665 134.894 17.4057V20.2726C134.894 23.0248 136.587 24.0015 138.853 24.0015" fill="white"/>
<path d="M154.974 26.904C151.103 26.904 148.663 24.6382 148.663 21.2809V17.1487C148.663 13.7914 151.103 11.4386 154.974 11.4386C158.846 11.4386 161.285 13.7914 161.285 17.1487V21.2809C161.285 24.6382 158.877 26.904 154.974 26.904ZM154.974 24.8082C157.556 24.8082 158.932 23.4321 158.932 21.2809V17.1487C158.932 14.9698 157.556 13.5621 154.974 13.5621C152.392 13.5621 151.044 14.9698 151.044 17.1487V21.2809C151.044 23.4321 152.42 24.8082 154.974 24.8082Z" fill="white"/>
<path d="M170.119 26.9038C168.138 26.9038 166.161 26.3304 164.441 25.069C164.267 24.9543 164.267 24.7803 164.354 24.6103L165.129 23.2896C165.244 23.0879 165.386 23.0602 165.588 23.2026C166.964 24.2346 168.542 24.808 170.179 24.808C172.101 24.808 173.564 24.0053 173.564 22.5145C173.564 20.9091 171.784 20.5334 170.179 20.221C168.115 19.79 164.583 18.9872 164.583 15.6577C164.583 12.7315 167.367 11.4424 170.234 11.4424C172.041 11.4424 173.647 11.9011 175.224 12.7908C175.426 12.8778 175.454 13.0478 175.339 13.2218L174.564 14.5149C174.477 14.6849 174.307 14.7443 174.133 14.6296C172.955 13.9969 171.551 13.5698 170.115 13.5698C168.107 13.5698 166.905 14.3725 166.905 15.6656C166.905 17.2434 168.597 17.6744 170.633 18.0738C172.927 18.5325 175.94 19.1929 175.94 22.4038C175.94 25.33 173.473 26.9078 170.115 26.9078" fill="white"/>
</g>
<defs>
<clipPath id="clip0_13_1376">
<rect width="176" height="39" fill="white"/>
</clipPath>
</defs>
</svg>
